<?xml version="1.0" encoding="UTF-8" standalone="no"?>
<!-- Created with Inkscape (http://www.inkscape.org/) -->

<svg
   width="48"
   height="48"
   viewBox="0 0 12.7 12.7"
   version="1.1"
   id="svg5"
   inkscape:version="1.2 (dc2aeda, 2022-05-15)"
   sodipodi:docname="icon.svg"
   xmlns:inkscape="http://www.inkscape.org/namespaces/inkscape"
   xmlns:sodipodi="http://sodipodi.sourceforge.net/DTD/sodipodi-0.dtd"
   xmlns="http://www.w3.org/2000/svg"
   xmlns:svg="http://www.w3.org/2000/svg">
  <sodipodi:namedview
     id="namedview7"
     pagecolor="#505050"
     bordercolor="#eeeeee"
     borderopacity="1"
     inkscape:showpageshadow="0"
     inkscape:pageopacity="0"
     inkscape:pagecheckerboard="0"
     inkscape:deskcolor="#505050"
     inkscape:document-units="mm"
     showgrid="false"
     inkscape:zoom="3.4577483"
     inkscape:cx="-3.181261"
     inkscape:cy="19.376772"
     inkscape:window-width="1309"
     inkscape:window-height="456"
     inkscape:window-x="0"
     inkscape:window-y="25"
     inkscape:window-maximized="0"
     inkscape:current-layer="layer1" />
  <defs
     id="defs2" />
  <g
     inkscape:label="Layer 1"
     inkscape:groupmode="layer"
     id="layer1">
    <rect
       style="fill:#210028;stroke:#6e007c;stroke-width:0.0635;stroke-linecap:round;stroke-linejoin:round;fill-opacity:1"
       id="rect478"
       width="16.757654"
       height="15.762907"
       x="-2.0660121"
       y="-1.0712656"
       ry="0.57643712" />
    <path
       id="ellipse10934"
       style="opacity:1;fill:#777777;fill-opacity:1;stroke:none;stroke-width:0.132821;stroke-linecap:round;stroke-linejoin:round;stroke-dasharray:none;stroke-opacity:1"
       d="m -10.011275,0.33124566 a 5.5326023,6.0190063 0 0 0 -5.532479,6.01875424 5.5326023,6.0190063 0 0 0 5.532479,6.0187521 5.5326023,6.0190063 0 0 0 0.2433958,-0.0098 5.5326023,6.0190063 0 0 0 0.2428791,0.0098 5.5326023,6.0190063 0 0 0 0.2428792,-0.0098 5.5326023,6.0190063 0 0 0 0.243396,0.0098 5.5326023,6.0190063 0 0 0 5.5324788,-6.0187521 5.5326023,6.0190063 0 0 0 -5.5324788,-6.01875424 5.5326023,6.0190063 0 0 0 -0.199471,0.00775 5.5326023,6.0190063 0 0 0 -0.2868042,-0.00775 5.5326023,6.0190063 0 0 0 -0.1994709,0.00775 5.5326023,6.0190063 0 0 0 -0.286804,-0.00775 z" />
    <ellipse
       style="opacity:1;fill:none;fill-opacity:1;stroke:#000000;stroke-width:0.132821;stroke-linecap:round;stroke-linejoin:round;stroke-dasharray:none;stroke-opacity:1"
       id="path2780"
       cx="-10.011404"
       cy="6.3499999"
       rx="5.5326023"
       ry="6.0190063" />
    <path
       class="line tws-6"
       d="m -7.8899166,3.1875259 c 0,0 0.5279559,0.089902 0.7324577,0.1785228 0.2045018,0.088622 0.3152569,0.1328188 0.4945542,0.3532054 0.1792959,0.2203879 0.4707617,0.6189702 0.5812229,0.9691189 0.1104588,0.3501474 0.141043,0.7087123 0.081542,1.1317689 -0.0595,0.4230559 -0.3003483,1.0725338 -0.4385396,1.4065694 -0.1381899,0.3340342 -0.1782151,0.4017399 -0.3906025,0.5976397 -0.2123865,0.1958994 -0.6181457,0.4655874 -0.8837185,0.5777581 -0.2655723,0.1121716 -0.5383048,0.079061 -0.7097183,0.09527 -0.1714134,0.016209 -0.3187595,0.00194 -0.3187595,0.00194"
       id="path264"
       style="fill:none;stroke:#000000;stroke-width:0.13282;stroke-dasharray:none;stroke-opacity:1" />
    <path
       class="line tws-8"
       d="m -7.5098124,2.6595152 c 0,0 0.6778801,0.1428072 0.9171513,0.2624159 0.2392708,0.1196075 0.3321991,0.1880921 0.5184741,0.4552317 0.1862698,0.2671391 0.4747647,0.7404404 0.5991735,1.1476038 0.1244068,0.4071633 0.1759628,0.7967238 0.1472734,1.2953753 -0.028658,0.4986514 -0.192849,1.2906074 -0.3193916,1.696531 -0.1265352,0.4059236 -0.1939423,0.4924015 -0.4398534,0.7390111 -0.2459106,0.246609 -0.6624445,0.5838542 -1.035607,0.740646 -0.3731628,0.156792 -1.0000551,0.1670056 -1.2033682,0.2001054 -0.2033131,0.0331 -0.016507,-0.00154 -0.016507,-0.00154"
       id="path266"
       style="fill:none;stroke:#000000;stroke-width:0.13282;stroke-dasharray:none;stroke-opacity:1" />
    <path
       class="line tws-10"
       d="m -7.3023285,2.2504922 c 0,0 0.7666511,0.268266 1.018268,0.4287765 0.2516168,0.16051 0.3101995,0.2392131 0.4914321,0.5342853 0.1812366,0.2950714 0.4642955,0.8017141 0.5959636,1.2361462 0.1316733,0.4344308 0.2043194,0.8355401 0.1940449,1.3704417 -0.010262,0.5349014 -0.1400025,1.3952413 -0.255671,1.8389678 -0.1156779,0.4437276 -0.1990413,0.5286582 -0.4383478,0.8233956 -0.2393123,0.2947369 -0.6156569,0.7232455 -0.9975155,0.9450292 -0.3818592,0.2217844 -1.0613348,0.321317 -1.2936412,0.3856755 -0.2323065,0.064383 -0.100196,4.754e-4 -0.100196,4.754e-4"
       id="path268"
       style="fill:none;stroke:#000000;stroke-width:0.13282;stroke-dasharray:none;stroke-opacity:1" />
    <path
       class="line tws-12"
       d="m -7.3303933,2.0496997 c 0,0 0.8994288,0.3445407 1.1802537,0.5242625 0.2808203,0.1797226 0.3148489,0.2497868 0.5046941,0.5540686 0.1898393,0.3042822 0.4927349,0.8229396 0.6343552,1.2716251 0.1416223,0.4486852 0.2125878,0.861134 0.2153657,1.420486 0.00323,0.5593516 -0.092285,1.4664864 -0.1987204,1.9356218 -0.1064269,0.4691362 -0.1957296,0.5611271 -0.4398349,0.8791951 -0.2440954,0.3180675 -0.6428878,0.7566252 -1.024756,1.029213 -0.3818683,0.272587 -0.9374797,0.4921472 -1.2664485,0.6063082 -0.3289672,0.114159 -0.7073606,0.07866 -0.7073606,0.07866"
       id="path270"
       style="fill:none;stroke:#000000;stroke-width:0.13282;stroke-dasharray:none;stroke-opacity:1" />
    <path
       class="line tws-14"
       d="m -7.3194263,1.9530215 c 0,0 0.9346522,0.3873774 1.2275131,0.5751552 0.2928566,0.1877788 0.3233445,0.2466599 0.5296573,0.5515156 0.2063049,0.3048557 0.5459434,0.8208779 0.7081839,1.2776184 0.1622396,0.4567416 0.2469747,0.8811607 0.2652407,1.4628312 0.018221,0.5816701 -0.059585,1.5320242 -0.1556493,2.0271893 -0.096113,0.4951651 -0.1701076,0.6059366 -0.4210363,0.9437998 -0.2509276,0.337864 -0.6831121,0.7928154 -1.0845244,1.0833825 -0.401416,0.2905705 -0.7974111,0.5090315 -1.323967,0.6600265 -0.5265549,0.150991 -1.8353663,0.245928 -1.8353663,0.245928"
       id="path272"
       style="fill:none;stroke:#000000;stroke-width:0.13282;stroke-dasharray:none;stroke-opacity:1" />
    <path
       class="line tws-16"
       d="m -7.3440387,1.9009643 c 0,0 0.982633,0.4076253 1.2870621,0.5997416 0.3044299,0.192116 0.3188037,0.2489769 0.5395151,0.552958 0.2207025,0.3039803 0.597936,0.8098465 0.7847194,1.2709256 0.1867985,0.4610799 0.3079003,0.8974068 0.3360323,1.4955524 0.028111,0.5981453 -0.082832,1.5727476 -0.1672424,2.0933205 -0.084428,0.5205739 -0.096501,0.6647178 -0.3392006,1.0301225 -0.2427006,0.365405 -0.6946337,0.8574333 -1.116996,1.1623081 -0.4223596,0.304871 -0.7319789,0.497496 -1.417162,0.66694 -0.6851815,0.169449 -2.6939322,0.349724 -2.6939322,0.349724"
       id="path274"
       style="fill:none;stroke:#000000;stroke-width:0.13282;stroke-dasharray:none;stroke-opacity:1" />
    <ellipse
       style="opacity:1;fill:none;fill-opacity:1;stroke:#000000;stroke-width:0.132821;stroke-linecap:round;stroke-linejoin:round;stroke-dasharray:none;stroke-opacity:1"
       id="circle7880"
       cx="-9.5250015"
       cy="6.3499999"
       rx="5.5326023"
       ry="6.0190063" />
    <ellipse
       style="opacity:1;fill:none;fill-opacity:1;stroke:#000000;stroke-width:0.132821;stroke-linecap:round;stroke-linejoin:round;stroke-dasharray:none;stroke-opacity:1"
       id="circle7882"
       cx="-9.0385962"
       cy="6.3499999"
       rx="5.5326023"
       ry="6.0190063" />
    <ellipse
       style="fill:#000000;fill-opacity:1;stroke:#6e007c;stroke-width:0.529167;stroke-linecap:round;stroke-linejoin:round;stroke-dasharray:none;stroke-opacity:1"
       id="path1033"
       cx="6.3500009"
       cy="6.3500042"
       rx="5.9766154"
       ry="5.976615" />
    <text
       xml:space="preserve"
       style="font-style:normal;font-weight:normal;font-size:10.5833px;line-height:1.25;font-family:sans-serif;fill:#6e007c;fill-opacity:1;stroke:none;stroke-width:0.264583;stroke-opacity:1"
       x="-8.2615747"
       y="10.099055"
       id="text2545"><tspan
         sodipodi:role="line"
         id="tspan2543"
         style="fill:#6e007c;fill-opacity:1;stroke:none;stroke-width:0.264583;stroke-opacity:1"
         x="-8.2615747"
         y="10.099055">P</tspan></text>
    <path
       class="line tws-16"
       d="m 18.585129,1.9009643 c 0,0 0.982633,0.4076253 1.287062,0.5997416 0.30443,0.192116 0.318803,0.2489769 0.539515,0.552958 0.220703,0.3039803 0.597936,0.8098465 0.78472,1.2709256 0.186798,0.4610799 0.3079,0.8974068 0.336032,1.4955524 0.02811,0.5981453 -0.08283,1.5727476 -0.167242,2.0933205 -0.08443,0.5205739 -0.0965,0.6647178 -0.339201,1.0301225 -0.242701,0.365405 -0.694634,0.8574333 -1.116997,1.1623081 -0.422359,0.304871 -0.731978,0.497496 -1.417161,0.66694 -0.685182,0.169449 -2.693933,0.349724 -2.693933,0.349724"
       id="path10941"
       style="fill:none;stroke:#ff8300;stroke-width:0.13282;stroke-dasharray:none;stroke-opacity:1" />
    <path
       id="path1476"
       style="fill:#6e007c;fill-opacity:1;stroke:#6e007c;stroke-width:0.0635;stroke-linecap:butt;stroke-linejoin:miter;stroke-dasharray:none;stroke-opacity:1"
       d="m 9.5058864,3.1800977 c 0,0 -3.3165124,1.0400371 -4.6664065,2.2968449 C 2.1366001,8.0495064 3.5373904,9.1485898 3.5373904,9.1485898 Z m 0.0082,0.0082 -5.9684951,5.968492 c 0,0 1.0990884,1.4007903 3.6716504,-1.3020875 C 8.4740452,6.5048046 9.5140814,3.1882928 9.5140814,3.1882928 Z"
       sodipodi:nodetypes="cccccccc" />
  </g>
</svg>
